PathFileType	4	(X/Y/Z)	C:\Users\WrightLab\Desktop\Jo\P1.2Trial16.trc
DataRate	CameraRate	NumFrames	NumMarkers	Units	OrigDataRate	OrigDataStartFrame	OrigNumFrames
100.00	100.00	       10	19	mm	100.00	232	       463
Frame#	Time	Headset_Front			Headset_Back			Headset_Left			Headset_Right			Left_Shoulder			Right_Shoulder			Sternum			C7			Left Elbow			Right Elbow			Left Wrist			Right Wrist			Left ASIS			Right ASIS			S2			Left Knee			Right Knee			Left Ankle			Right Ankle			
		X1	Y1	Z1	X2	Y2	Z2	X3	Y3	Z3	X4	Y4	Z4	X5	Y5	Z5	X6	Y6	Z6	X7	Y7	Z7	X8	Y8	Z8	X9	Y9	Z9	X10	Y10	Z10	X11	Y11	Z11	X12	Y12	Z12	X13	Y13	Z13	X14	Y14	Z14	X15	Y15	Z15	X16	Y16	Z16	X17	Y17	Z17	X18	Y18	Z18	X19	Y19	Z19	

232	2.310	107.28589	1406.17322	1322.18225	52.72673	1517.04163	1043.50769	184.28006	1469.96277	1136.95837	-18.01044	1430.52930	1239.75488	283.45520	1259.16272	1014.34680	-111.62876	1248.91516	1178.76465	132.99559	1195.73389	1216.37634	45.26498	1308.44397	995.91968	302.01309	997.37653	885.97858	-175.80676	1005.59015	1234.34155	417.78564	785.79584	894.77893	-95.42120	846.52454	1447.01843	265.19302	887.01868	1177.21228				77.89134	907.98444	936.57019	269.25012	516.39001	1296.34839	-17.42570	424.32452	1131.17749	377.73044	224.79869	1378.93823	29.13059	105.46591	956.78278	
233	2.320	109.91520	1405.78284	1332.28027	55.31321	1515.86157	1053.26086	187.48332	1469.85144	1146.75977	-14.65540	1429.22278	1249.15234	288.38141	1258.02722	1027.41199	-107.55644	1247.30457	1187.41296	136.25443	1194.79126	1227.43689	50.18085	1306.73975	1006.16284	308.60577	996.13177	899.00018	-172.02924	1004.38263	1243.13330	424.82721	784.95898	909.50214	-92.66794	845.04669	1456.35254	267.35922	885.43951	1189.83752				83.87431	906.67377	946.69806	269.43079	514.90637	1310.18909	-14.71955	423.28488	1139.03418	370.46539	225.05205	1394.99097	28.76257	105.89599	957.68744	
234	2.330	112.64619	1405.70227	1342.49072	57.69588	1515.04138	1063.02722	190.28026	1469.50037	1156.84973	-11.55862	1427.77856	1258.59045	293.24658	1256.73743	1039.91040	-104.09335	1246.64844	1196.29126	139.02505	1194.28076	1239.00488	55.82056	1305.42249	1016.01166	315.56812	994.73730	912.90948	-168.08861	1003.02307	1251.33936	431.11200	783.50983	923.51178	-91.72546	844.15222	1465.50488	269.53461	883.79590	1202.06689				89.11713	905.27374	956.34869	268.70093	514.99677	1323.81055	-11.62543	422.17651	1147.08679	361.31351	222.01093	1405.67761	27.75524	107.79202	959.29059	
235	2.340	114.74712	1405.87451	1352.53992	61.70396	1514.10034	1072.56702	193.90950	1469.15002	1167.29736	-8.52771	1426.48730	1267.60193	298.38797	1256.26416	1051.79358	-99.62592	1245.70789	1205.09546	142.60500	1193.72937	1250.21729	60.84062	1304.46716	1026.24023	321.71396	993.24878	926.45044	-164.36386	1001.91516	1259.04346	437.48148	782.21625	937.95007	-90.08390	841.82495	1473.51331	272.22122	883.12158	1216.50378				94.65601	904.08606	966.92047	269.01718	513.28778	1337.86023	-9.54461	422.24722	1156.42407	352.40778	216.38535	1416.59253	27.38224	108.88848	960.61523	
236	2.350	117.33567	1405.30481	1363.07605	65.94332	1512.33167	1082.05518	196.83588	1469.63354	1178.12756	-5.86116	1425.52734	1277.55566	303.93713	1255.63171	1064.82568	-96.16656	1245.05176	1213.93872	145.82053	1193.40503	1261.97375	66.55534	1303.31189	1036.30273	328.00183	992.02856	939.00128	-160.35590	1000.55676	1266.49060	443.68906	780.83179	953.85559	-89.85071	839.49097	1481.31091	274.67627	882.77960	1229.37256				100.24532	903.20972	977.60107	269.35941	511.50412	1351.73132	-5.62133	422.02881	1165.88208	343.29291	209.21265	1424.14343	26.71131	110.67505	963.20892	
237	2.360	119.47616	1405.37585	1372.89563	70.09298	1511.61365	1091.67212	200.25618	1469.76660	1189.01868	-2.98009	1424.47839	1286.61780	309.26880	1254.94055	1077.66174	-92.47980	1244.28784	1222.44836	149.20642	1193.56006	1273.23425	72.27538	1302.40149	1046.47229	334.24991	990.55048	953.60419	-156.83374	999.67969	1273.95691	450.12238	780.15955	968.92023	-89.64003	836.94348	1487.27686	277.18484	881.97540	1243.46228				105.94490	902.33337	988.97241	271.03772	507.32159	1365.53577	-2.43772	421.43082	1175.27283	336.75998	200.92989	1429.56995	26.67937	112.75403	966.33667	
238	2.370	120.73361	1405.25098	1382.07532	73.81266	1511.32104	1101.35474	203.29614	1470.24731	1199.66882	-0.35872	1423.67480	1295.62183	314.65671	1254.04114	1090.64783	-88.57872	1243.82397	1231.11365	153.09178	1193.30151	1285.01526	77.97943	1301.38904	1056.79871	341.31393	989.12061	968.31488	-153.59650	998.46912	1280.66443	456.15344	778.51843	985.11194	-90.38673	832.97784	1492.78552	280.43250	882.36334	1257.80640				112.04074	900.87610	1000.67438	270.36005	505.49576	1379.91577	0.64844	421.06830	1185.14429	337.32733	198.93213	1438.27454	26.77489	116.57524	971.07977	
239	2.380	122.05927	1405.70422	1392.49158	77.29755	1511.97437	1111.33350	206.67291	1471.38037	1211.65222	2.60997	1423.06592	1304.63647	320.17749	1253.93787	1103.81226	-84.52044	1243.65137	1239.21057	156.15428	1194.14246	1296.91394	84.06836	1300.82117	1067.31470	347.41190	987.94788	982.70868	-149.96252	997.55225	1286.77429	462.40771	777.29175	1001.99988	-91.19996	829.83990	1497.72302	282.36838	881.84595	1271.69275	4.80438	867.18524	1320.45264	117.88491	900.23352	1012.34741	271.12286	502.53082	1394.87793	3.13523	421.59607	1195.41711	341.64780	198.42877	1448.60803	27.40194	118.85681	973.93268	
240	2.390	123.50030	1406.52417	1403.56592	81.80432	1512.23560	1121.33191	210.66661	1473.18909	1224.15918	4.77505	1423.00049	1313.77124	326.07117	1253.07507	1117.54932	-80.67956	1243.65442	1247.49109	159.81125	1194.87854	1308.65137	90.02062	1300.85144	1077.75964	353.81616	987.43079	996.98212	-147.20410	997.17682	1292.66504	467.94284	776.06244	1018.61725	-92.42668	825.41840	1502.97827	286.28342	882.70227	1287.18640				123.92686	899.68530	1025.05847	272.30078	498.35953	1407.68579	6.51574	420.91693	1205.25305	342.78229	196.04092	1457.15540	26.37435	123.50131	978.80365	
241	2.400	124.29562	1407.41626	1413.86450	86.54167	1513.58704	1130.58411	212.05556	1473.59644	1236.23633	7.10548	1423.61157	1322.79785	331.19012	1253.23828	1130.53931	-77.01942	1244.71228	1255.55774	162.73668	1196.24963	1320.44995	95.94308	1301.59314	1088.53430	360.21570	986.71429	1013.04364	-143.72728	996.60065	1297.74414	472.69257	774.87646	1036.10730	-94.08415	821.75214	1506.50977	288.77585	882.85205	1301.61804	10.01048	870.69720	1341.01648	130.37256	899.43951	1037.35034	272.85635	496.76682	1420.87830	8.34341	421.88306	1215.93286	344.93811	194.45961	1468.49133	26.38673	128.65721	985.80786	
